<svg width="104px" height="104px" viewBox="0 0 104 104" version="1.1" xmlns="http://www.w3.org/2000/svg" xmlns:xlink="http://www.w3.org/1999/xlink">
    <g id="icons/feature/user-friendly" stroke="none" stroke-width="1" fill="none" fill-rule="evenodd" stroke-linecap="round" stroke-linejoin="round">
        <g id="User-Friendly_02" transform="translate(1.000000, 27.000000)" stroke="#3892E3" stroke-width="1.33766234">
            <path d="M22.2720779,41.04 C9.14662483,46.7435616 0.662773871,59.6611633 0.668831169,73.9333333 L0.668827927,75.36 L72.6350649,75.36" id="Path"></path>
            <path d="M48.7845455,4.14666667 C45.1509336,1.86849227 40.9446102,0.661990056 36.6519481,0.666666667 L18.2590909,0.666666667 L20.0649351,7.74666667 C12.2376231,15.8959569 11.5904985,28.5342068 18.5447595,37.4354767 C25.4990204,46.3367466 37.9504371,48.8076781 47.7946753,43.24" id="Path"></path>
            <path d="M51.8076623,41.08 C38.8724675,47.12 30.2846753,59.2533333 30.2846753,73.9333333 L30.2846753,75.36 L102.250909,75.36 L102.250909,73.9333333 C102.24605,59.7482547 93.8573923,46.8976587 80.8483117,41.1466667" id="Path"></path>
            <path d="M49.7342857,7.74666667 C42.3155307,15.5543449 41.4217975,27.483334 47.5948325,36.302744 C53.7678675,45.122154 65.3083705,48.4041961 75.2209368,44.1594239 C85.133503,39.9146517 90.689422,29.3115571 88.5209113,18.7773244 C86.3524006,8.24309176 77.0564034,0.677562458 66.2677922,0.666666667 L47.8615584,0.666666667 L49.7342857,7.74666667 Z" id="Path"></path>
            <path d="M78.4003896,42.6666667 C73.2637026,45.5879141 68.9127918,49.7051579 65.7193506,54.6666667 L65.7193506,54.6666667 L51.5401299,40.9866667" id="Path"></path>
            <path d="M49.7342857,7.74666667 C50.7943354,12.1620211 54.7438666,15.2838909 59.2985714,15.3066667 L59.2985714,15.3066667 C71.3774693,15.3066667 81.1693506,25.0668591 81.1693506,37.1066667 L81.1693506,40.6" id="Path"></path>
            <path d="M20.1318182,7.77333333 L20.1318182,7.77333333 C21.1903127,12.1838397 25.146434,15.2943733 29.6961039,15.2933333 L29.6961039,15.2933333 C34.7727856,15.2862436 39.6928308,17.045126 43.6077922,20.2666667" id="Path"></path>
            <path d="M35.942987,54.6666667 L22.338961,41.1066667 C24.5880635,40.1747446 26.353653,38.3618316 27.2214286,36.0933333" id="Path"></path>
            <path d="M51.6605195,41.0533333 C53.914885,40.1082839 55.6803521,38.2810329 56.542987,36" id="Path"></path>
        </g>
    </g>
</svg>