<svg width="104px" height="104px" viewBox="0 0 104 104" version="1.1" xmlns="http://www.w3.org/2000/svg" xmlns:xlink="http://www.w3.org/1999/xlink">
    <!-- Generator: Sketch 54.1 (76490) - https://sketchapp.com -->
    <title>Scalable</title>
    <g id="Icons/Scalable" stroke="none" stroke-width="1" fill="none" fill-rule="evenodd" stroke-linejoin="round">
        <g id="28" transform="translate(0.000000, 6.000000)" stroke="#3892E3" stroke-width="1.5">
            <polygon id="Path" points="14.5284615 80.8434667 0.653846154 72.8466667 0.653846154 56.84 14.5284615 64.8498667"></polygon>
            <polygon id="Path" points="28.39 56.7485333 14.5284615 64.7584 0.653846154 56.7485333 14.5284615 48.7517333"></polygon>
            <polygon id="Path" points="28.39 72.8466667 14.5284615 80.8434667 14.5284615 64.8498667 28.39 56.84"></polygon>
            <polygon id="Path" points="42.2646154 64.7976 28.39 56.8008 28.39 40.7941333 42.2646154 48.7909333"></polygon>
            <polygon id="Path" points="56.1392308 40.7026667 42.2646154 48.7125333 28.39 40.7026667 42.2646154 32.7058667"></polygon>
            <polygon id="Path" points="56.1392308 56.8008 42.2646154 64.7976 42.2646154 48.7909333 56.1392308 40.7941333"></polygon>
            <polygon id="Path" points="42.2646154 96.9024 28.39 88.8925333 28.39 72.8858667 42.2646154 80.8957333"></polygon>
            <polygon id="Path" points="56.1392308 72.8074667 42.2646154 80.8042667 28.39 72.8074667 42.2646154 64.7976"></polygon>
            <polygon id="Path" points="56.1392308 88.8925333 42.2646154 96.9024 42.2646154 80.8957333 56.1392308 72.8858667"></polygon>
            <polygon id="Path" points="70.0007692 80.8042667 56.1392308 72.8074667 56.1392308 56.8008 70.0007692 64.7976"></polygon>
            <polygon id="Path" points="83.8753846 56.7093333 70.0007692 64.7061333 56.1392308 56.7093333 70.0007692 48.7125333"></polygon>
            <polygon id="Path" points="83.8753846 72.8074667 70.0007692 80.8042667 70.0007692 64.7976 83.8753846 56.8008"></polygon>
            <polygon id="Path" points="14.5284615 48.7517333 0.653846154 40.7549333 0.653846154 24.7482667 14.5284615 32.7450667"></polygon>
            <polygon id="Path" points="28.39 24.6568 14.5284615 32.6666667 0.653846154 24.6568 14.5284615 16.66"></polygon>
            <polygon id="Path" points="28.39 40.7549333 14.5284615 48.7517333 14.5284615 32.7450667 28.39 24.7482667"></polygon>
            <polygon id="Path" points="70.0007692 48.7909333 56.1392308 40.7941333 56.1392308 24.7874667 70.0007692 32.7973333"></polygon>
            <polygon id="Path" points="83.8753846 24.7090667 70.0007692 32.7058667 56.1392308 24.7090667 70.0007692 16.6992"></polygon>
            <polygon id="Path" points="83.8753846 40.7941333 70.0007692 48.7909333 70.0007692 32.7973333 83.8753846 24.7874667"></polygon>
            <polygon id="Path" points="42.2646154 32.7450667 28.39 24.7482667 28.39 8.7416 42.2646154 16.7514667"></polygon>
            <polygon id="Path" points="56.1392308 8.65013333 42.2646154 16.66 28.39 8.65013333 42.2646154 0.653333333"></polygon>
            <polygon id="Path" points="56.1392308 24.7482667 42.2646154 32.7450667 42.2646154 16.7514667 56.1392308 8.7416"></polygon>
        </g>
    </g>
</svg>