<svg width="104px" height="104px" viewBox="0 0 104 104" version="1.1" xmlns="http://www.w3.org/2000/svg" xmlns:xlink="http://www.w3.org/1999/xlink">
    <!-- Generator: Sketch 54.1 (76490) - https://sketchapp.com -->
    <title>Flexible</title>
    <g id="Icons/Flexible" stroke="none" stroke-width="1" fill="none" fill-rule="evenodd" stroke-linejoin="round">
        <g id="27" transform="translate(0.000000, 30.500000)" stroke="#3892E3" stroke-width="1.5">
            <ellipse id="Oval" cx="51.896" cy="26.4625" rx="6.123" ry="25.8107143"></ellipse>
            <ellipse id="Oval" cx="24.388" cy="66.5342857" rx="23.738" ry="6.13982143"></ellipse>
            <ellipse id="Oval" transform="translate(24.676389, 57.220704) rotate(-76.190000) translate(-24.676389, -57.220704) " cx="24.6763889" cy="57.2207036" rx="6.17798291" ry="23.7547182"></ellipse>
            <ellipse id="Oval" transform="translate(26.780934, 48.196299) rotate(-60.450000) translate(-26.780934, -48.196299) " cx="26.7809345" cy="48.1962993" rx="6.27909193" ry="23.9359848"></ellipse>
            <ellipse id="Oval" transform="translate(32.173385, 38.122454) rotate(-44.520000) translate(-32.173385, -38.122454) " cx="32.173385" cy="38.1224545" rx="6.17041171" ry="23.940391"></ellipse>
            <ellipse id="Oval" transform="translate(38.078531, 31.852515) rotate(-29.200000) translate(-38.078531, -31.852515) " cx="38.078531" cy="31.8525152" rx="6.16609584" ry="24.3087825"></ellipse>
            <ellipse id="Oval" transform="translate(44.253898, 28.692819) rotate(-11.410000) translate(-44.253898, -28.692819) " cx="44.2538975" cy="28.6928185" rx="6.1236728" ry="24.7912701"></ellipse>
            <ellipse id="Oval" cx="79.417" cy="66.5342857" rx="23.738" ry="6.13982143"></ellipse>
            <ellipse id="Oval" transform="translate(79.114581, 57.218696) rotate(-13.810000) translate(-79.114581, -57.218696) " cx="79.1145811" cy="57.218696" rx="23.7547182" ry="6.17798291"></ellipse>
            <ellipse id="Oval" transform="translate(77.008577, 48.186513) rotate(-29.550000) translate(-77.008577, -48.186513) " cx="77.0085771" cy="48.1865126" rx="23.9359848" ry="6.27909193"></ellipse>
            <ellipse id="Oval" transform="translate(71.610621, 38.119530) rotate(-45.480000) translate(-71.610621, -38.119530) " cx="71.6106206" cy="38.1195301" rx="23.940391" ry="6.17041171"></ellipse>
            <ellipse id="Oval" transform="translate(65.728520, 31.857135) rotate(-60.800000) translate(-65.728520, -31.857135) " cx="65.7285199" cy="31.8571346" rx="24.3087825" ry="6.16609584"></ellipse>
            <ellipse id="Oval" transform="translate(59.547216, 28.703815) rotate(-78.590000) translate(-59.547216, -28.703815) " cx="59.5472162" cy="28.7038145" rx="24.7912701" ry="6.1236728"></ellipse>
        </g>
    </g>
</svg>